<svg xmlns="http://www.w3.org/2000/svg" fill="currentColor" viewBox="0 0 36 32"><path d="M28.625 2.188q0.375-0.313 0.75 0l2.438 2.438q0.313 0.375 0 0.75l-7.5 7.5-3.188-3.188 7.5-7.5zM4.188 26.625l15.5-15.5 3.188 3.188-15.5 15.5q-0.375 0.313-0.75 0l-2.438-2.438q-0.313-0.375 0-0.75v0zM27.25 0.75l-24.5 24.5q-0.688 0.75-0.688 1.75t0.688 1.75l2.5 2.5q0.75 0.688 1.75 0.688t1.75-0.688l24.5-24.5q0.688-0.75 0.688-1.75t-0.688-1.75l-2.5-2.5q-0.75-0.688-1.75-0.688t-1.75 0.688v0zM8 5q-0.063-0.938-1-1-0.938 0.063-1 1v3h-3q-0.938 0.063-1 1 0.063 0.938 1 1h3v3q0.063 0.938 1 1 0.938-0.063 1-1v-3h3q0.938-0.063 1-1-0.063-0.938-1-1h-3v-3zM29 20q-0.938 0.063-1 1v3h-3q-0.938 0.063-1 1 0.063 0.938 1 1h3v3q0.063 0.938 1 1 0.938-0.063 1-1v-3h3q0.938-0.063 1-1-0.063-0.938-1-1h-3v-3q-0.063-0.938-1-1v0zM15.75 1q-0.063-0.688-0.75-0.75-0.688 0.063-0.75 0.75v1.25h-1.25q-0.688 0.063-0.75 0.75 0.063 0.688 0.75 0.75h1.25v1.25q0.063 0.688 0.75 0.75 0.688-0.063 0.75-0.75v-1.25h1.25q0.688-0.063 0.75-0.75-0.063-0.688-0.75-0.75h-1.25v-1.25z"></path></svg>